<svg width="2707" height="936" viewBox="0 0 2707 936" fill="none" xmlns="http://www.w3.org/2000/svg">
<path d="M497.374 0L528.259 1.54395L549.364 3.60352L566.866 7.20703L585.912 11.8389L618.857 23.6787L655.699 39.3096C665.093 43.2948 674.123 48.0894 682.685 53.6406L716.659 75.6689L756.295 109.128L801.679 155.836L756.296 199.17L754.506 197.038C734.079 172.708 710.887 150.84 685.401 131.876L655.066 109.304C631.151 91.5091 604.026 78.4966 575.181 70.9805L561.165 67.3281C550.918 64.6581 540.444 62.9467 529.88 62.2158L477.295 58.5771L424.621 62.2188C414.068 62.9481 403.604 64.6556 393.366 67.3203L361.086 75.7227C344.209 80.1157 328.203 87.3563 313.761 97.1318L286.631 115.494C246.126 142.91 211.256 177.84 183.908 218.391L181.49 221.976C166.851 243.684 156.235 267.848 150.151 293.314L133.511 362.957C132.325 367.921 131.389 372.937 130.707 377.987C131.999 380.285 134.395 381.929 137.282 382.09C152.654 382.944 164.655 395.701 164.57 411.096L163.407 622.347C163.29 643.741 148.291 661.797 127.957 666.294C128.222 667.744 128.591 669.177 129.07 670.585C134.508 686.539 152.632 736.805 174.296 765.439C203.791 804.423 271.172 844.712 271.172 844.712C271.205 844.67 282.705 830.105 293.329 827.21C307.509 823.346 392.612 851.263 394.595 875.014C396.448 897.219 384.594 924.769 372.511 932.515C354.934 943.782 273.344 915.015 262.926 905.015C256.669 899.008 259.315 878.718 259.319 878.686C259.135 878.582 182.649 835.32 149.046 792.207C119.304 754.049 97.4838 683.067 93.1525 668.308C72.6216 667.801 45.7811 664.273 29.9035 650.844C7.61193 631.989 0.000132764 613.343 0.000132764 575.103C-0.000236775 534.175 0.000300366 507.924 0.000132764 466.489C1.02971 443.757 7.70685 431.671 23.6535 415.423C33.2011 405.695 52.0057 396.685 63.1603 391.878C68.5489 389.556 72.3373 384.494 72.7599 378.642L75.3995 342.089C75.3995 342.089 79.1502 312.394 84.4201 294.047C90.016 274.564 105 242.087 105 242.087L105.082 242.17L118.644 211.049L140.712 173.974C141.115 173.297 141.565 172.649 142.06 172.036L171.204 135.896L197.999 109.128L237.678 75.6689L278.983 48.917C282.702 46.5083 286.587 44.3886 290.639 42.5947C300.633 38.1695 320.909 29.3104 335.584 23.6787C348.348 18.7805 368.525 11.8517 368.563 11.8389L387.629 7.20703L405.149 3.60352L426.276 1.54395L457.193 0H497.374ZM849.169 241.671C849.212 241.773 862.401 272.929 867.987 292.38C873.254 310.717 877.004 340.388 877.008 340.422L879.648 376.975C880.07 382.827 883.859 387.889 889.247 390.211C900.402 395.018 919.207 404.029 928.754 413.757C944.701 430.005 951.378 442.091 952.407 464.823C952.407 506.258 952.408 532.509 952.407 573.437C952.407 611.676 944.795 630.322 922.504 649.177C894.17 673.142 830.925 665.577 830.925 665.577C807.381 663.833 789.13 644.288 789 620.68L787.837 409.429C787.753 394.034 799.755 381.277 815.126 380.423C820.138 380.144 823.676 375.397 822.511 370.515L802.336 285.99L849.169 241.671Z" fill="#1C1E54"/>
<path d="M854.596 424.59C888.844 429.41 917.414 430.423 917.414 463.757C917.414 513.341 917.414 559.592 917.414 602.926C917.414 624.422 897.097 631.089 852.04 631.089L854.596 424.59Z" fill="#5645D4"/>
<path d="M97.8169 425.007C63.5691 429.827 34.9992 430.84 34.9992 464.174C34.9992 513.758 34.9992 560.009 34.9992 603.343C34.9992 624.839 55.3166 631.506 100.373 631.506L97.8169 425.007Z" fill="#5645D4"/>
<path d="M938.139 188.833L907.876 157.054L745.24 311.795C745.241 311.796 745.242 311.797 745.242 311.798L744.294 312.698L732.849 323.587L732.831 323.569L702.607 352.236C694.18 330.665 679.458 311.384 651.773 299.726C623.429 287.791 596.853 289.025 568.021 299.726C527.71 314.687 478.694 382.702 478.437 383.059V383.486C478.353 383.37 429.234 315.14 388.852 300.152C360.019 289.451 333.444 288.216 305.1 300.152C264.755 317.141 250.956 353.902 245.933 383.486C242.183 405.57 241.349 448.904 286.35 509.739C318.85 553.674 380.518 615.989 478.435 692.656V692.236C576.353 615.568 638.021 553.253 670.522 509.317C715.522 448.483 709.274 378.069 709.274 378.069L755.941 332.652C766.358 378.069 766.692 412.335 755.941 450.983C740.524 506.4 710.411 548.015 674.689 588.068C606.099 664.973 479.029 757.222 478.437 757.652V758.076C478.437 758.076 350.933 665.574 282.183 588.49C246.46 548.437 216.348 506.821 200.931 451.404C188.87 408.051 191.76 339.444 219.265 300.152C242.599 266.818 267.599 245.984 313.433 239.317C352.561 233.625 374.31 235.742 410.936 250.568C441.179 262.81 478.251 299.965 478.436 300.151V299.726C478.436 299.726 515.618 262.415 545.937 250.142C582.562 235.316 604.311 233.2 643.44 238.891C675.771 243.594 696.283 252.657 713.753 269.288L871.672 119.035L844.911 90.9331L971.908 63.3345L938.139 188.833Z" fill="#1C1E54"/>
<path d="M366.934 317.235C404.02 321.818 431.935 360.569 479.435 417.653V670.157C479.435 670.157 378.869 581.823 319.849 511.405C279.463 463.22 252.792 407.236 279.432 355.569C292.537 330.152 323.337 311.847 366.934 317.235Z" fill="#5645D4"/>
<path d="M589.936 317.763C552.85 322.347 524.935 361.097 477.435 418.181V670.686C477.435 670.686 578.001 582.351 637.021 511.933C677.407 463.748 704.078 407.765 677.438 356.097C664.334 330.68 633.533 312.375 589.936 317.763Z" fill="#5645D4"/>
<path d="M1431.95 711.147H1456.66C1461.51 711.147 1464.97 710.191 1467.03 708.279C1469.23 706.22 1470.34 702.91 1470.34 698.35V685.554C1470.34 680.994 1469.23 677.758 1467.03 675.846C1464.82 673.933 1461.22 672.977 1456.22 672.977H1431.95C1430.33 672.977 1429.52 673.786 1429.52 675.404V708.72C1429.52 710.338 1430.33 711.147 1431.95 711.147ZM1431.95 650.252H1454.45C1459.16 650.252 1462.62 649.296 1464.82 647.384C1467.03 645.324 1468.13 642.015 1468.13 637.455V628.85C1468.13 624.29 1467.03 621.054 1464.82 619.142C1462.76 617.083 1459.38 616.053 1454.67 616.053H1431.95C1430.33 616.053 1429.52 616.862 1429.52 618.48V647.825C1429.52 649.443 1430.33 650.252 1431.95 650.252ZM1401.5 729.901V597.299C1401.5 594.21 1403.04 592.666 1406.13 592.666H1459.08C1470.71 592.666 1479.68 595.755 1486 601.933C1492.33 608.11 1495.49 616.936 1495.49 628.409V637.455C1495.49 649.958 1489.68 658.048 1478.06 661.725C1483.94 662.607 1488.65 665.034 1492.18 669.006C1495.71 672.83 1497.48 678.346 1497.48 685.554V698.792C1497.48 710.265 1494.31 719.09 1487.99 725.268C1481.66 731.446 1472.76 734.535 1461.29 734.535H1406.13C1403.04 734.535 1401.5 732.99 1401.5 729.901ZM1598.02 734.535H1579.26C1576.17 734.535 1574.63 732.99 1574.63 729.901V597.299C1574.63 594.21 1576.17 592.666 1579.26 592.666H1633.1C1644.57 592.666 1653.47 595.828 1659.79 602.153C1666.12 608.331 1669.28 617.156 1669.28 628.629V649.811C1669.28 661.284 1666.12 670.183 1659.79 676.507C1653.47 682.685 1644.57 685.774 1633.1 685.774H1605.3C1603.53 685.774 1602.65 686.583 1602.65 688.201V729.901C1602.65 732.99 1601.11 734.535 1598.02 734.535ZM1605.08 661.284H1628.46C1633.17 661.284 1636.48 660.327 1638.39 658.415C1640.31 656.356 1641.26 653.047 1641.26 648.487V629.953C1641.26 625.246 1640.31 621.937 1638.39 620.025C1636.48 617.965 1633.17 616.936 1628.46 616.936H1605.08C1603.46 616.936 1602.65 617.745 1602.65 619.363V658.857C1602.65 660.475 1603.46 661.284 1605.08 661.284ZM1765.76 734.535H1747.01C1743.92 734.535 1742.37 732.99 1742.37 729.901V597.299C1742.37 594.21 1743.92 592.666 1747.01 592.666H1800.84C1812.31 592.666 1821.21 595.828 1827.54 602.153C1833.86 608.331 1837.03 617.156 1837.03 628.629V649.811C1837.03 661.284 1833.86 670.183 1827.54 676.507C1821.21 682.685 1812.31 685.774 1800.84 685.774H1773.04C1771.28 685.774 1770.39 686.583 1770.39 688.201V729.901C1770.39 732.99 1768.85 734.535 1765.76 734.535ZM1772.82 661.284H1796.21C1800.91 661.284 1804.22 660.327 1806.14 658.415C1808.05 656.356 1809 653.047 1809 648.487V629.953C1809 625.246 1808.05 621.937 1806.14 620.025C1804.22 617.965 1800.91 616.936 1796.21 616.936H1772.82C1771.2 616.936 1770.39 617.745 1770.39 619.363V658.857C1770.39 660.475 1771.2 661.284 1772.82 661.284ZM1933.5 734.535H1914.75C1911.66 734.535 1910.12 732.99 1910.12 729.901V597.299C1910.12 594.21 1911.66 592.666 1914.75 592.666H1933.5C1936.59 592.666 1938.14 594.21 1938.14 597.299V660.18H1938.58C1939.75 656.65 1942.03 652.09 1945.42 646.501L1978.95 597.299C1980.87 594.21 1983.74 592.666 1987.56 592.666H2009.18C2010.8 592.666 2011.76 593.181 2012.05 594.21C2012.49 595.093 2012.12 596.27 2010.95 597.74L1969.03 655.768L2015.8 729.019C2016.83 730.784 2016.98 732.181 2016.24 733.211C2015.65 734.093 2014.33 734.535 2012.27 734.535H1996.16C1991.02 734.535 1987.56 732.99 1985.79 729.901L1952.04 675.846L1938.14 692.173V729.901C1938.14 732.99 1936.59 734.535 1933.5 734.535ZM2098.68 734.535H2077.49C2074.85 734.535 2073.96 732.99 2074.85 729.901L2109.71 597.299C2110.74 594.21 2112.94 592.666 2116.33 592.666H2145.67C2149.35 592.666 2151.55 594.21 2152.29 597.299L2187.15 729.901C2188.03 732.99 2187.15 734.535 2184.5 734.535H2163.32C2161.7 734.535 2160.6 734.24 2160.01 733.652C2159.42 732.917 2158.98 731.666 2158.69 729.901L2152.51 705.631H2109.49L2103.31 729.901C2103.01 731.666 2102.5 732.917 2101.76 733.652C2101.18 734.24 2100.15 734.535 2098.68 734.535ZM2130.67 619.363L2114.78 683.127H2147.44L2131.55 619.363H2130.67ZM2287.9 710.265H2311.95C2316.66 710.265 2319.97 709.309 2321.88 707.396C2323.94 705.337 2324.97 701.954 2324.97 697.247V629.953C2324.97 625.246 2323.94 621.937 2321.88 620.025C2319.97 617.965 2316.66 616.936 2311.95 616.936H2287.9C2286.28 616.936 2285.47 617.745 2285.47 619.363V707.838C2285.47 709.456 2286.28 710.265 2287.9 710.265ZM2257.45 729.901V597.299C2257.45 594.21 2259 592.666 2262.09 592.666H2316.58C2328.06 592.666 2336.96 595.828 2343.28 602.153C2349.75 608.331 2352.99 617.156 2352.99 628.629V698.571C2352.99 710.044 2349.75 718.943 2343.28 725.268C2336.96 731.446 2328.06 734.535 2316.58 734.535H2262.09C2259 734.535 2257.45 732.99 2257.45 729.901Z" fill="#1C1E54"/>
<path d="M1058.62 206.721C1072.18 189.165 1090.55 175.935 1111.5 168.645L1116.64 166.858C1122.7 164.75 1129.07 163.693 1135.48 163.732L1336.66 164.949C1342.5 164.984 1346.8 170.441 1345.47 176.132L1330.07 241.699H1163.49C1161 241.699 1158.51 242.091 1156.13 242.86L1148.29 245.401C1139 248.407 1132.72 257.053 1132.72 266.811C1132.72 267.555 1132.81 268.297 1132.98 269.019L1133.13 269.603C1135.43 278.933 1142.67 286.249 1151.97 288.659L1157.65 290.128L1179.11 293.491L1256.48 301.562C1273.6 303.347 1290.37 307.596 1306.26 314.176L1320.52 320.078C1345.97 330.611 1363.47 354.406 1365.94 381.84L1366.88 392.326C1368.61 411.616 1364.36 430.973 1354.71 447.764C1335.2 481.703 1298.95 502.524 1259.81 502.271L1219.28 502.008H1120.25L1048.93 500.663C1043.83 500.993 1039.93 496.215 1041.26 491.289L1059.13 425.328C1059.24 424.932 1059.6 424.658 1060.01 424.663L1239.9 426.576C1245.91 426.64 1251.85 425.249 1257.21 422.523L1257.69 422.28C1261.52 420.331 1264.59 417.169 1266.44 413.287L1268.74 408.451C1270.72 404.285 1270.49 399.407 1268.13 395.441C1263.9 388.306 1257 383.148 1248.96 381.102L1232.43 376.898L1195.73 372.19L1144.49 366.136L1124.18 362.595C1102.23 358.769 1081.98 348.335 1066.12 332.689L1063.2 329.802C1052.51 319.255 1044.96 305.948 1041.38 291.364C1035.97 269.302 1038.66 246.032 1048.94 225.779L1058.62 206.721Z" fill="#1C1E54"/>
<path d="M1410.4 167.551C1410.4 165.038 1412.44 163 1414.95 163H1502.79C1505.31 163 1507.34 165.038 1507.34 167.551V497.457C1507.34 499.97 1505.31 502.008 1502.79 502.008H1414.95C1412.44 502.008 1410.4 499.97 1410.4 497.457V167.551Z" fill="#1C1E54"/>
<path d="M2609.76 167.551C2609.76 165.038 2611.8 163 2614.31 163H2702.16C2704.67 163 2706.71 165.038 2706.71 167.551V497.457C2706.71 499.97 2704.67 502.008 2702.16 502.008H2614.31C2611.8 502.008 2609.76 499.97 2609.76 497.457V167.551Z" fill="#1C1E54"/>
<path d="M2080.23 191.28C2095.13 161.45 2135.17 154.271 2159.12 177.133L2173.83 191.171L2173.83 191.165L2173.84 191.183L2173.86 191.2L2173.86 191.209L2323.33 493.692C2324.81 496.684 2322.63 500.126 2319.27 500.126H2233.61C2231.83 500.125 2230.2 499.114 2229.42 497.531L2126.01 287.342L2023.26 493.787C2022.48 495.356 2020.86 496.358 2019.09 496.363L1934.97 496.605C1931.59 496.615 1929.41 493.153 1930.91 490.154L2080.23 191.28Z" fill="#1C1E54"/>
<path d="M2372.94 248.268C2372.94 245.754 2374.97 243.716 2377.49 243.716H2466.72C2469.23 243.716 2471.27 245.754 2471.27 248.268V497.457C2471.27 499.971 2469.23 502.008 2466.72 502.008H2377.49C2374.97 502.008 2372.94 499.971 2372.94 497.457V248.268Z" fill="#1C1E54"/>
<path d="M2571.27 171.071C2574.04 171.071 2576.17 173.529 2575.77 176.273L2566.01 243.851C2565.68 246.09 2563.76 247.752 2561.5 247.752H2267.54C2264.72 247.752 2262.58 245.211 2263.05 242.431L2272.38 188.088C2274.06 178.257 2282.59 171.071 2292.56 171.071H2571.27Z" fill="#1C1E54"/>
<path d="M1568.28 167.551C1568.28 165.038 1570.32 163 1572.83 163H1660.68C1663.19 163 1665.23 165.038 1665.23 167.551V497.457C1665.23 499.97 1663.19 502.008 1660.68 502.008H1572.83C1570.32 502.008 1568.28 499.97 1568.28 497.457V167.551Z" fill="#1C1E54"/>
<path d="M1795.41 167.551C1795.41 165.038 1797.45 163 1799.96 163H1887.81C1890.32 163 1892.36 165.038 1892.36 167.551V497.457C1892.36 499.97 1890.32 502.008 1887.81 502.008H1799.96C1797.45 502.008 1795.41 499.97 1795.41 497.457V167.551Z" fill="#1C1E54"/>
<path d="M1795.41 300.217V372.862H1665.23V300.217H1795.41Z" fill="#1C1E54"/>
<ellipse cx="2127.11" cy="439.453" rx="45.0108" ry="43.7213" fill="#DD5B00"/>
<rect x="1040.96" y="656.827" width="304.931" height="20.477" fill="#1C1E54"/>
<rect x="2401.78" y="656.827" width="304.931" height="20.477" fill="#1C1E54"/>
</svg>
